STARTFONT 2.1
COMMENT A monospaced micro font. Uppercase chars only.
FONT -Nitram-Micro-Mono
SIZE 5 320 200
FONTBOUNDINGBOX 5 5 0 0
STARTPROPERTIES 5
MinSpace "5"
Copyright "Copyright (c) 1996 Martin W. Kirst"
FONT_ASCENT 5
FONT_DESCENT 5
_GBDFED_INFO "Edited with gbdfed 1.6."
ENDPROPERTIES
CHARS 195
STARTCHAR char1
ENCODING 1
SWIDTH 225 0
DWIDTH 5 0
BBX 5 5 0 0
BITMAP
50
00
20
88
70
ENDCHAR
STARTCHAR char2
ENCODING 2
SWIDTH 225 0
DWIDTH 5 0
BBX 5 5 0 0
BITMAP
50
00
00
70
88
ENDCHAR
STARTCHAR char3
ENCODING 3
SWIDTH 225 0
DWIDTH 5 0
BBX 5 5 0 0
BITMAP
D8
F8
F8
70
20
ENDCHAR
STARTCHAR char5
ENCODING 5
SWIDTH 225 0
DWIDTH 5 0
BBX 3 4 1 0
BITMAP
40
A0
40
E0
ENDCHAR
STARTCHAR char6
ENCODING 6
SWIDTH 225 0
DWIDTH 5 0
BBX 5 5 0 0
BITMAP
20
70
70
20
70
ENDCHAR
STARTCHAR char7
ENCODING 7
SWIDTH 225 0
DWIDTH 5 0
BBX 3 3 1 1
BITMAP
E0
E0
E0
ENDCHAR
STARTCHAR char9
ENCODING 9
SWIDTH 225 0
DWIDTH 5 0
BBX 3 3 1 1
BITMAP
40
A0
40
ENDCHAR
STARTCHAR char11
ENCODING 11
SWIDTH 225 0
DWIDTH 5 0
BBX 5 5 0 0
BITMAP
78
38
F8
A8
E0
ENDCHAR
STARTCHAR char14
ENCODING 14
SWIDTH 225 0
DWIDTH 5 0
BBX 5 5 0 0
BITMAP
F0
50
50
50
A0
ENDCHAR
STARTCHAR char15
ENCODING 15
SWIDTH 225 0
DWIDTH 5 0
BBX 5 5 0 0
BITMAP
A8
70
D8
70
A8
ENDCHAR
STARTCHAR char16
ENCODING 16
SWIDTH 225 0
DWIDTH 5 0
BBX 5 5 0 0
BITMAP
20
30
38
30
20
ENDCHAR
STARTCHAR char17
ENCODING 17
SWIDTH 225 0
DWIDTH 5 0
BBX 5 5 0 0
BITMAP
20
60
E0
60
20
ENDCHAR
STARTCHAR char18
ENCODING 18
SWIDTH 225 0
DWIDTH 5 0
BBX 5 5 0 0
BITMAP
20
70
20
70
20
ENDCHAR
STARTCHAR char19
ENCODING 19
SWIDTH 225 0
DWIDTH 5 0
BBX 5 5 0 0
BITMAP
50
50
50
00
50
ENDCHAR
STARTCHAR char20
ENCODING 20
SWIDTH 225 0
DWIDTH 5 0
BBX 5 5 0 0
BITMAP
30
D0
50
50
50
ENDCHAR
STARTCHAR char21
ENCODING 21
SWIDTH 225 0
DWIDTH 5 0
BBX 0 0 0 0
BITMAP
ENDCHAR
STARTCHAR char22
ENCODING 22
SWIDTH 225 0
DWIDTH 5 0
BBX 5 2 0 0
BITMAP
F8
F8
ENDCHAR
STARTCHAR char24
ENCODING 24
SWIDTH 225 0
DWIDTH 5 0
BBX 5 5 0 0
BITMAP
20
70
A8
20
20
ENDCHAR
STARTCHAR char25
ENCODING 25
SWIDTH 225 0
DWIDTH 5 0
BBX 5 5 0 0
BITMAP
20
20
A8
70
20
ENDCHAR
STARTCHAR char26
ENCODING 26
SWIDTH 225 0
DWIDTH 5 0
BBX 5 5 0 0
BITMAP
20
10
F8
10
20
ENDCHAR
STARTCHAR char27
ENCODING 27
SWIDTH 225 0
DWIDTH 5 0
BBX 5 5 0 0
BITMAP
20
40
F8
40
20
ENDCHAR
STARTCHAR char28
ENCODING 28
SWIDTH 225 0
DWIDTH 5 0
BBX 4 3 1 1
BITMAP
80
80
F0
ENDCHAR
STARTCHAR char30
ENCODING 30
SWIDTH 225 0
DWIDTH 5 0
BBX 5 3 0 2
BITMAP
20
70
F8
ENDCHAR
STARTCHAR char31
ENCODING 31
SWIDTH 225 0
DWIDTH 5 0
BBX 5 3 0 0
BITMAP
F8
70
20
ENDCHAR
STARTCHAR char32
ENCODING 32
SWIDTH 225 0
DWIDTH 5 0
BBX 0 0 0 0
BITMAP
ENDCHAR
STARTCHAR char33
ENCODING 33
SWIDTH 225 0
DWIDTH 5 0
BBX 5 5 0 0
BITMAP
20
20
20
00
20
ENDCHAR
STARTCHAR char34
ENCODING 34
SWIDTH 225 0
DWIDTH 5 0
BBX 3 2 1 3
BITMAP
A0
A0
ENDCHAR
STARTCHAR char35
ENCODING 35
SWIDTH 225 0
DWIDTH 5 0
BBX 5 5 0 0
BITMAP
50
F8
50
F8
50
ENDCHAR
STARTCHAR char36
ENCODING 36
SWIDTH 225 0
DWIDTH 5 0
BBX 5 5 0 0
BITMAP
F8
A0
F8
28
F8
ENDCHAR
STARTCHAR char37
ENCODING 37
SWIDTH 225 0
DWIDTH 5 0
BBX 5 5 0 0
BITMAP
88
10
20
40
88
ENDCHAR
STARTCHAR char38
ENCODING 38
SWIDTH 225 0
DWIDTH 5 0
BBX 5 5 0 0
BITMAP
60
90
68
90
68
ENDCHAR
STARTCHAR char39
ENCODING 39
SWIDTH 225 0
DWIDTH 5 0
BBX 2 2 2 3
BITMAP
40
80
ENDCHAR
STARTCHAR char40
ENCODING 40
SWIDTH 225 0
DWIDTH 5 0
BBX 5 5 0 0
BITMAP
10
20
20
20
10
ENDCHAR
STARTCHAR char41
ENCODING 41
SWIDTH 225 0
DWIDTH 5 0
BBX 5 5 0 0
BITMAP
40
20
20
20
40
ENDCHAR
STARTCHAR char42
ENCODING 42
SWIDTH 225 0
DWIDTH 5 0
BBX 5 5 0 0
BITMAP
A8
70
F8
70
A8
ENDCHAR
STARTCHAR char43
ENCODING 43
SWIDTH 225 0
DWIDTH 5 0
BBX 3 3 1 1
BITMAP
40
E0
40
ENDCHAR
STARTCHAR char44
ENCODING 44
SWIDTH 225 0
DWIDTH 5 0
BBX 2 2 1 0
BITMAP
40
80
ENDCHAR
STARTCHAR char45
ENCODING 45
SWIDTH 225 0
DWIDTH 5 0
BBX 3 1 1 2
BITMAP
E0
ENDCHAR
STARTCHAR char46
ENCODING 46
SWIDTH 225 0
DWIDTH 5 0
BBX 1 1 1 0
BITMAP
80
ENDCHAR
STARTCHAR char47
ENCODING 47
SWIDTH 225 0
DWIDTH 5 0
BBX 5 5 0 0
BITMAP
10
20
20
20
40
ENDCHAR
STARTCHAR char48
ENCODING 48
SWIDTH 225 0
DWIDTH 5 0
BBX 5 5 0 0
BITMAP
70
98
A8
C8
70
ENDCHAR
STARTCHAR char49
ENCODING 49
SWIDTH 225 0
DWIDTH 5 0
BBX 5 5 0 0
BITMAP
20
60
20
20
70
ENDCHAR
STARTCHAR char50
ENCODING 50
SWIDTH 225 0
DWIDTH 5 0
BBX 5 5 0 0
BITMAP
70
10
70
40
70
ENDCHAR
STARTCHAR char51
ENCODING 51
SWIDTH 225 0
DWIDTH 5 0
BBX 5 5 0 0
BITMAP
70
10
30
10
70
ENDCHAR
STARTCHAR char52
ENCODING 52
SWIDTH 225 0
DWIDTH 5 0
BBX 5 5 0 0
BITMAP
40
40
50
70
10
ENDCHAR
STARTCHAR char53
ENCODING 53
SWIDTH 225 0
DWIDTH 5 0
BBX 5 5 0 0
BITMAP
70
40
70
10
70
ENDCHAR
STARTCHAR char54
ENCODING 54
SWIDTH 225 0
DWIDTH 5 0
BBX 5 5 0 0
BITMAP
60
40
70
50
70
ENDCHAR
STARTCHAR char55
ENCODING 55
SWIDTH 225 0
DWIDTH 5 0
BBX 5 5 0 0
BITMAP
70
10
30
10
10
ENDCHAR
STARTCHAR char56
ENCODING 56
SWIDTH 225 0
DWIDTH 5 0
BBX 5 5 0 0
BITMAP
70
50
70
50
70
ENDCHAR
STARTCHAR char57
ENCODING 57
SWIDTH 225 0
DWIDTH 5 0
BBX 5 5 0 0
BITMAP
70
50
70
10
70
ENDCHAR
STARTCHAR char58
ENCODING 58
SWIDTH 225 0
DWIDTH 5 0
BBX 1 3 2 1
BITMAP
80
00
80
ENDCHAR
STARTCHAR char59
ENCODING 59
SWIDTH 225 0
DWIDTH 5 0
BBX 2 4 1 0
BITMAP
40
00
40
80
ENDCHAR
STARTCHAR char60
ENCODING 60
SWIDTH 225 0
DWIDTH 5 0
BBX 5 5 0 0
BITMAP
10
20
40
20
10
ENDCHAR
STARTCHAR char61
ENCODING 61
SWIDTH 225 0
DWIDTH 5 0
BBX 3 3 1 1
BITMAP
E0
00
E0
ENDCHAR
STARTCHAR char62
ENCODING 62
SWIDTH 225 0
DWIDTH 5 0
BBX 5 5 0 0
BITMAP
40
20
10
20
40
ENDCHAR
STARTCHAR char63
ENCODING 63
SWIDTH 225 0
DWIDTH 5 0
BBX 5 5 0 0
BITMAP
70
88
30
00
20
ENDCHAR
STARTCHAR char64
ENCODING 64
SWIDTH 225 0
DWIDTH 5 0
BBX 5 5 0 0
BITMAP
70
90
A0
80
70
ENDCHAR
STARTCHAR char65
ENCODING 65
SWIDTH 225 0
DWIDTH 5 0
BBX 5 5 0 0
BITMAP
60
90
88
F8
88
ENDCHAR
STARTCHAR char66
ENCODING 66
SWIDTH 225 0
DWIDTH 5 0
BBX 5 5 0 0
BITMAP
E0
90
F0
88
F0
ENDCHAR
STARTCHAR char67
ENCODING 67
SWIDTH 225 0
DWIDTH 5 0
BBX 5 5 0 0
BITMAP
70
88
80
88
70
ENDCHAR
STARTCHAR char68
ENCODING 68
SWIDTH 225 0
DWIDTH 5 0
BBX 5 5 0 0
BITMAP
F0
98
88
88
F0
ENDCHAR
STARTCHAR char69
ENCODING 69
SWIDTH 225 0
DWIDTH 5 0
BBX 5 5 0 0
BITMAP
F8
80
F0
80
F8
ENDCHAR
STARTCHAR char70
ENCODING 70
SWIDTH 225 0
DWIDTH 5 0
BBX 5 5 0 0
BITMAP
F8
80
F0
80
80
ENDCHAR
STARTCHAR char71
ENCODING 71
SWIDTH 225 0
DWIDTH 5 0
BBX 5 5 0 0
BITMAP
70
80
98
88
70
ENDCHAR
STARTCHAR char72
ENCODING 72
SWIDTH 225 0
DWIDTH 5 0
BBX 5 5 0 0
BITMAP
90
88
F8
88
88
ENDCHAR
STARTCHAR char73
ENCODING 73
SWIDTH 225 0
DWIDTH 5 0
BBX 5 5 0 0
BITMAP
70
20
20
20
70
ENDCHAR
STARTCHAR char74
ENCODING 74
SWIDTH 225 0
DWIDTH 5 0
BBX 5 5 0 0
BITMAP
30
10
10
50
70
ENDCHAR
STARTCHAR char75
ENCODING 75
SWIDTH 225 0
DWIDTH 5 0
BBX 5 5 0 0
BITMAP
90
A0
C0
A0
90
ENDCHAR
STARTCHAR char76
ENCODING 76
SWIDTH 225 0
DWIDTH 5 0
BBX 5 5 0 0
BITMAP
80
80
80
80
F0
ENDCHAR
STARTCHAR char77
ENCODING 77
SWIDTH 225 0
DWIDTH 5 0
BBX 5 5 0 0
BITMAP
88
D8
A8
88
88
ENDCHAR
STARTCHAR char78
ENCODING 78
SWIDTH 225 0
DWIDTH 5 0
BBX 5 5 0 0
BITMAP
88
C8
A8
98
88
ENDCHAR
STARTCHAR char79
ENCODING 79
SWIDTH 225 0
DWIDTH 5 0
BBX 5 5 0 0
BITMAP
70
98
88
88
70
ENDCHAR
STARTCHAR char80
ENCODING 80
SWIDTH 225 0
DWIDTH 5 0
BBX 5 5 0 0
BITMAP
E0
90
E0
80
80
ENDCHAR
STARTCHAR char81
ENCODING 81
SWIDTH 225 0
DWIDTH 5 0
BBX 5 5 0 0
BITMAP
70
88
88
98
78
ENDCHAR
STARTCHAR char82
ENCODING 82
SWIDTH 225 0
DWIDTH 5 0
BBX 5 5 0 0
BITMAP
E0
90
E0
A0
90
ENDCHAR
STARTCHAR char83
ENCODING 83
SWIDTH 225 0
DWIDTH 5 0
BBX 5 5 0 0
BITMAP
78
80
70
08
F0
ENDCHAR
STARTCHAR char84
ENCODING 84
SWIDTH 225 0
DWIDTH 5 0
BBX 5 5 0 0
BITMAP
F8
20
20
20
20
ENDCHAR
STARTCHAR char85
ENCODING 85
SWIDTH 225 0
DWIDTH 5 0
BBX 5 5 0 0
BITMAP
90
88
88
88
70
ENDCHAR
STARTCHAR char86
ENCODING 86
SWIDTH 225 0
DWIDTH 5 0
BBX 5 5 0 0
BITMAP
50
50
50
50
20
ENDCHAR
STARTCHAR char87
ENCODING 87
SWIDTH 225 0
DWIDTH 5 0
BBX 5 5 0 0
BITMAP
90
88
A8
A8
50
ENDCHAR
STARTCHAR char88
ENCODING 88
SWIDTH 225 0
DWIDTH 5 0
BBX 5 5 0 0
BITMAP
88
50
20
50
88
ENDCHAR
STARTCHAR char89
ENCODING 89
SWIDTH 225 0
DWIDTH 5 0
BBX 5 5 0 0
BITMAP
88
50
20
20
20
ENDCHAR
STARTCHAR char90
ENCODING 90
SWIDTH 225 0
DWIDTH 5 0
BBX 5 5 0 0
BITMAP
F8
10
20
40
F8
ENDCHAR
STARTCHAR char91
ENCODING 91
SWIDTH 225 0
DWIDTH 5 0
BBX 5 5 0 0
BITMAP
30
20
20
20
30
ENDCHAR
STARTCHAR char92
ENCODING 92
SWIDTH 225 0
DWIDTH 5 0
BBX 5 5 0 0
BITMAP
40
20
20
20
10
ENDCHAR
STARTCHAR char93
ENCODING 93
SWIDTH 225 0
DWIDTH 5 0
BBX 5 5 0 0
BITMAP
60
20
20
20
60
ENDCHAR
STARTCHAR char94
ENCODING 94
SWIDTH 225 0
DWIDTH 5 0
BBX 3 2 1 3
BITMAP
40
A0
ENDCHAR
STARTCHAR char95
ENCODING 95
SWIDTH 225 0
DWIDTH 5 0
BBX 3 1 1 0
BITMAP
E0
ENDCHAR
STARTCHAR char96
ENCODING 96
SWIDTH 225 0
DWIDTH 5 0
BBX 2 2 2 3
BITMAP
80
40
ENDCHAR
STARTCHAR char97
ENCODING 97
SWIDTH 225 0
DWIDTH 5 0
BBX 5 5 0 0
BITMAP
60
90
88
F8
88
ENDCHAR
STARTCHAR char98
ENCODING 98
SWIDTH 225 0
DWIDTH 5 0
BBX 5 5 0 0
BITMAP
E0
90
F0
88
F0
ENDCHAR
STARTCHAR char99
ENCODING 99
SWIDTH 225 0
DWIDTH 5 0
BBX 5 5 0 0
BITMAP
70
88
80
88
70
ENDCHAR
STARTCHAR char100
ENCODING 100
SWIDTH 225 0
DWIDTH 5 0
BBX 5 5 0 0
BITMAP
F0
98
88
88
F0
ENDCHAR
STARTCHAR char101
ENCODING 101
SWIDTH 225 0
DWIDTH 5 0
BBX 5 5 0 0
BITMAP
F8
80
F0
80
F8
ENDCHAR
STARTCHAR char102
ENCODING 102
SWIDTH 225 0
DWIDTH 5 0
BBX 5 5 0 0
BITMAP
F8
80
F0
80
80
ENDCHAR
STARTCHAR char103
ENCODING 103
SWIDTH 225 0
DWIDTH 5 0
BBX 5 5 0 0
BITMAP
70
80
98
88
70
ENDCHAR
STARTCHAR char104
ENCODING 104
SWIDTH 225 0
DWIDTH 5 0
BBX 5 5 0 0
BITMAP
90
88
F8
88
88
ENDCHAR
STARTCHAR char105
ENCODING 105
SWIDTH 225 0
DWIDTH 5 0
BBX 5 5 0 0
BITMAP
70
20
20
20
70
ENDCHAR
STARTCHAR char106
ENCODING 106
SWIDTH 225 0
DWIDTH 5 0
BBX 5 5 0 0
BITMAP
30
10
10
50
70
ENDCHAR
STARTCHAR char107
ENCODING 107
SWIDTH 225 0
DWIDTH 5 0
BBX 5 5 0 0
BITMAP
48
50
60
50
48
ENDCHAR
STARTCHAR char108
ENCODING 108
SWIDTH 225 0
DWIDTH 5 0
BBX 5 5 0 0
BITMAP
80
80
80
80
F0
ENDCHAR
STARTCHAR char109
ENCODING 109
SWIDTH 225 0
DWIDTH 5 0
BBX 5 5 0 0
BITMAP
88
D8
A8
88
88
ENDCHAR
STARTCHAR char110
ENCODING 110
SWIDTH 225 0
DWIDTH 5 0
BBX 5 5 0 0
BITMAP
88
C8
A8
98
88
ENDCHAR
STARTCHAR char111
ENCODING 111
SWIDTH 225 0
DWIDTH 5 0
BBX 5 5 0 0
BITMAP
70
98
88
88
70
ENDCHAR
STARTCHAR char112
ENCODING 112
SWIDTH 225 0
DWIDTH 5 0
BBX 5 5 0 0
BITMAP
E0
90
E0
80
80
ENDCHAR
STARTCHAR char113
ENCODING 113
SWIDTH 225 0
DWIDTH 5 0
BBX 5 5 0 0
BITMAP
70
88
88
98
78
ENDCHAR
STARTCHAR char114
ENCODING 114
SWIDTH 225 0
DWIDTH 5 0
BBX 5 5 0 0
BITMAP
E0
90
E0
A0
90
ENDCHAR
STARTCHAR char115
ENCODING 115
SWIDTH 225 0
DWIDTH 5 0
BBX 5 5 0 0
BITMAP
78
80
70
08
F0
ENDCHAR
STARTCHAR char116
ENCODING 116
SWIDTH 225 0
DWIDTH 5 0
BBX 5 5 0 0
BITMAP
F8
20
20
20
20
ENDCHAR
STARTCHAR char117
ENCODING 117
SWIDTH 225 0
DWIDTH 5 0
BBX 5 5 0 0
BITMAP
90
88
88
88
70
ENDCHAR
STARTCHAR char118
ENCODING 118
SWIDTH 225 0
DWIDTH 5 0
BBX 5 5 0 0
BITMAP
50
50
50
50
20
ENDCHAR
STARTCHAR char119
ENCODING 119
SWIDTH 225 0
DWIDTH 5 0
BBX 5 5 0 0
BITMAP
90
88
A8
A8
50
ENDCHAR
STARTCHAR char120
ENCODING 120
SWIDTH 225 0
DWIDTH 5 0
BBX 5 5 0 0
BITMAP
88
50
20
50
88
ENDCHAR
STARTCHAR char121
ENCODING 121
SWIDTH 225 0
DWIDTH 5 0
BBX 5 5 0 0
BITMAP
88
50
20
20
20
ENDCHAR
STARTCHAR char122
ENCODING 122
SWIDTH 225 0
DWIDTH 5 0
BBX 5 5 0 0
BITMAP
F8
10
20
40
F8
ENDCHAR
STARTCHAR char123
ENCODING 123
SWIDTH 225 0
DWIDTH 5 0
BBX 5 5 0 0
BITMAP
30
20
40
20
30
ENDCHAR
STARTCHAR char124
ENCODING 124
SWIDTH 225 0
DWIDTH 5 0
BBX 5 5 0 0
BITMAP
20
20
20
20
20
ENDCHAR
STARTCHAR char125
ENCODING 125
SWIDTH 225 0
DWIDTH 5 0
BBX 5 5 0 0
BITMAP
60
20
10
20
60
ENDCHAR
STARTCHAR char126
ENCODING 126
SWIDTH 225 0
DWIDTH 5 0
BBX 4 2 0 3
BITMAP
50
A0
ENDCHAR
STARTCHAR char127
ENCODING 127
SWIDTH 225 0
DWIDTH 5 0
BBX 3 4 1 0
BITMAP
40
A0
A0
E0
ENDCHAR
STARTCHAR char161
ENCODING 161
SWIDTH 225 0
DWIDTH 5 0
BBX 5 5 0 0
BITMAP
20
00
20
20
20
ENDCHAR
STARTCHAR char171
ENCODING 171
SWIDTH 225 0
DWIDTH 5 0
BBX 5 5 0 0
BITMAP
20
48
90
48
20
ENDCHAR
STARTCHAR char172
ENCODING 172
SWIDTH 225 0
DWIDTH 5 0
BBX 3 3 0 0
BITMAP
E0
20
20
ENDCHAR
STARTCHAR char177
ENCODING 177
SWIDTH 225 0
DWIDTH 5 0
BBX 5 5 0 0
BITMAP
20
70
20
00
70
ENDCHAR
STARTCHAR char183
ENCODING 183
SWIDTH 225 0
DWIDTH 5 0
BBX 1 1 2 2
BITMAP
80
ENDCHAR
STARTCHAR char187
ENCODING 187
SWIDTH 225 0
DWIDTH 5 0
BBX 5 5 0 0
BITMAP
20
90
48
90
20
ENDCHAR
STARTCHAR char191
ENCODING 191
SWIDTH 225 0
DWIDTH 5 0
BBX 5 5 0 0
BITMAP
20
00
60
88
70
ENDCHAR
STARTCHAR char196
ENCODING 196
SWIDTH 225 0
DWIDTH 5 0
BBX 5 5 0 0
BITMAP
50
00
70
50
78
ENDCHAR
STARTCHAR char214
ENCODING 214
SWIDTH 225 0
DWIDTH 5 0
BBX 5 5 0 0
BITMAP
50
00
70
50
70
ENDCHAR
STARTCHAR char220
ENCODING 220
SWIDTH 225 0
DWIDTH 5 0
BBX 5 5 0 0
BITMAP
50
00
50
50
70
ENDCHAR
STARTCHAR char223
ENCODING 223
SWIDTH 225 0
DWIDTH 5 0
BBX 5 5 0 0
BITMAP
60
90
B0
88
B0
ENDCHAR
STARTCHAR char228
ENCODING 228
SWIDTH 225 0
DWIDTH 5 0
BBX 5 5 0 0
BITMAP
50
00
70
50
78
ENDCHAR
STARTCHAR char246
ENCODING 246
SWIDTH 225 0
DWIDTH 5 0
BBX 5 5 0 0
BITMAP
50
00
70
50
70
ENDCHAR
STARTCHAR char247
ENCODING 247
SWIDTH 225 0
DWIDTH 5 0
BBX 5 5 0 0
BITMAP
20
00
70
00
20
ENDCHAR
STARTCHAR char252
ENCODING 252
SWIDTH 225 0
DWIDTH 5 0
BBX 5 5 0 0
BITMAP
50
00
50
50
70
ENDCHAR
STARTCHAR char949
ENCODING 949
SWIDTH 225 0
DWIDTH 5 0
BBX 5 5 0 0
BITMAP
30
40
70
40
30
ENDCHAR
STARTCHAR char966
ENCODING 966
SWIDTH 225 0
DWIDTH 5 0
BBX 5 5 0 0
BITMAP
08
70
50
70
80
ENDCHAR
STARTCHAR char8729
ENCODING 8729
SWIDTH 225 0
DWIDTH 5 0
BBX 3 3 1 1
BITMAP
E0
E0
E0
ENDCHAR
STARTCHAR char8730
ENCODING 8730
SWIDTH 225 0
DWIDTH 5 0
BBX 5 5 0 0
BITMAP
18
10
D0
50
20
ENDCHAR
STARTCHAR char8745
ENCODING 8745
SWIDTH 225 0
DWIDTH 5 0
BBX 5 5 0 0
BITMAP
60
90
90
90
90
ENDCHAR
STARTCHAR char8776
ENCODING 8776
SWIDTH 225 0
DWIDTH 5 0
BBX 5 5 0 0
BITMAP
50
A0
00
50
A0
ENDCHAR
STARTCHAR char8801
ENCODING 8801
SWIDTH 225 0
DWIDTH 5 0
BBX 5 5 0 0
BITMAP
70
00
70
00
70
ENDCHAR
STARTCHAR char8804
ENCODING 8804
SWIDTH 225 0
DWIDTH 5 0
BBX 5 5 0 0
BITMAP
10
20
40
20
70
ENDCHAR
STARTCHAR char8805
ENCODING 8805
SWIDTH 225 0
DWIDTH 5 0
BBX 5 5 0 0
BITMAP
40
20
10
20
70
ENDCHAR
STARTCHAR char8976
ENCODING 8976
SWIDTH 225 0
DWIDTH 5 0
BBX 3 3 2 0
BITMAP
E0
80
80
ENDCHAR
STARTCHAR char8992
ENCODING 8992
SWIDTH 225 0
DWIDTH 5 0
BBX 5 5 0 0
BITMAP
10
28
20
20
20
ENDCHAR
STARTCHAR char8993
ENCODING 8993
SWIDTH 225 0
DWIDTH 5 0
BBX 5 5 0 0
BITMAP
20
20
20
A0
40
ENDCHAR
STARTCHAR char9472
ENCODING 9472
SWIDTH 225 0
DWIDTH 5 0
BBX 5 1 0 2
BITMAP
F8
ENDCHAR
STARTCHAR char9474
ENCODING 9474
SWIDTH 225 0
DWIDTH 5 0
BBX 5 5 0 0
BITMAP
20
20
20
20
20
ENDCHAR
STARTCHAR char9484
ENCODING 9484
SWIDTH 225 0
DWIDTH 5 0
BBX 3 3 2 0
BITMAP
E0
80
80
ENDCHAR
STARTCHAR char9488
ENCODING 9488
SWIDTH 225 0
DWIDTH 5 0
BBX 3 3 0 0
BITMAP
E0
20
20
ENDCHAR
STARTCHAR char9492
ENCODING 9492
SWIDTH 225 0
DWIDTH 5 0
BBX 3 3 2 2
BITMAP
80
80
E0
ENDCHAR
STARTCHAR char9496
ENCODING 9496
SWIDTH 225 0
DWIDTH 5 0
BBX 3 3 0 2
BITMAP
20
20
E0
ENDCHAR
STARTCHAR char9500
ENCODING 9500
SWIDTH 225 0
DWIDTH 5 0
BBX 5 5 0 0
BITMAP
20
20
38
20
20
ENDCHAR
STARTCHAR char9508
ENCODING 9508
SWIDTH 225 0
DWIDTH 5 0
BBX 5 5 0 0
BITMAP
20
20
E0
20
20
ENDCHAR
STARTCHAR char9516
ENCODING 9516
SWIDTH 225 0
DWIDTH 5 0
BBX 5 3 0 0
BITMAP
F8
20
20
ENDCHAR
STARTCHAR char9524
ENCODING 9524
SWIDTH 225 0
DWIDTH 5 0
BBX 5 3 0 2
BITMAP
20
20
F8
ENDCHAR
STARTCHAR char9532
ENCODING 9532
SWIDTH 225 0
DWIDTH 5 0
BBX 5 5 0 0
BITMAP
20
20
F8
20
20
ENDCHAR
STARTCHAR char9552
ENCODING 9552
SWIDTH 225 0
DWIDTH 5 0
BBX 5 3 0 1
BITMAP
F8
00
F8
ENDCHAR
STARTCHAR char9553
ENCODING 9553
SWIDTH 225 0
DWIDTH 5 0
BBX 5 5 0 0
BITMAP
50
50
50
50
50
ENDCHAR
STARTCHAR char9554
ENCODING 9554
SWIDTH 225 0
DWIDTH 5 0
BBX 3 4 2 0
BITMAP
E0
80
E0
80
ENDCHAR
STARTCHAR char9555
ENCODING 9555
SWIDTH 225 0
DWIDTH 5 0
BBX 4 3 1 0
BITMAP
F0
A0
A0
ENDCHAR
STARTCHAR char9556
ENCODING 9556
SWIDTH 225 0
DWIDTH 5 0
BBX 4 4 1 0
BITMAP
F0
80
B0
A0
ENDCHAR
STARTCHAR char9557
ENCODING 9557
SWIDTH 225 0
DWIDTH 5 0
BBX 3 4 0 0
BITMAP
E0
20
E0
20
ENDCHAR
STARTCHAR char9558
ENCODING 9558
SWIDTH 225 0
DWIDTH 5 0
BBX 4 3 0 0
BITMAP
F0
50
50
ENDCHAR
STARTCHAR char9559
ENCODING 9559
SWIDTH 225 0
DWIDTH 5 0
BBX 4 4 0 0
BITMAP
F0
10
D0
50
ENDCHAR
STARTCHAR char9560
ENCODING 9560
SWIDTH 225 0
DWIDTH 5 0
BBX 3 4 2 1
BITMAP
80
E0
80
E0
ENDCHAR
STARTCHAR char9561
ENCODING 9561
SWIDTH 225 0
DWIDTH 5 0
BBX 4 3 1 2
BITMAP
A0
A0
F0
ENDCHAR
STARTCHAR char9562
ENCODING 9562
SWIDTH 225 0
DWIDTH 5 0
BBX 4 4 1 1
BITMAP
A0
B0
80
F0
ENDCHAR
STARTCHAR char9563
ENCODING 9563
SWIDTH 225 0
DWIDTH 5 0
BBX 3 4 0 1
BITMAP
20
E0
20
E0
ENDCHAR
STARTCHAR char9564
ENCODING 9564
SWIDTH 225 0
DWIDTH 5 0
BBX 4 3 0 2
BITMAP
50
50
F0
ENDCHAR
STARTCHAR char9565
ENCODING 9565
SWIDTH 225 0
DWIDTH 5 0
BBX 4 4 0 1
BITMAP
50
D0
10
F0
ENDCHAR
STARTCHAR char9566
ENCODING 9566
SWIDTH 225 0
DWIDTH 5 0
BBX 5 5 0 0
BITMAP
20
38
20
38
20
ENDCHAR
STARTCHAR char9567
ENCODING 9567
SWIDTH 225 0
DWIDTH 5 0
BBX 5 5 0 0
BITMAP
50
50
58
50
50
ENDCHAR
STARTCHAR char9568
ENCODING 9568
SWIDTH 225 0
DWIDTH 5 0
BBX 5 5 0 0
BITMAP
50
58
40
58
50
ENDCHAR
STARTCHAR char9569
ENCODING 9569
SWIDTH 225 0
DWIDTH 5 0
BBX 5 5 0 0
BITMAP
20
E0
20
E0
20
ENDCHAR
STARTCHAR char9570
ENCODING 9570
SWIDTH 225 0
DWIDTH 5 0
BBX 5 5 0 0
BITMAP
50
50
D0
50
50
ENDCHAR
STARTCHAR char9571
ENCODING 9571
SWIDTH 225 0
DWIDTH 5 0
BBX 5 5 0 0
BITMAP
50
D0
10
D0
50
ENDCHAR
STARTCHAR char9572
ENCODING 9572
SWIDTH 225 0
DWIDTH 5 0
BBX 5 4 0 0
BITMAP
F8
00
F8
20
ENDCHAR
STARTCHAR char9573
ENCODING 9573
SWIDTH 225 0
DWIDTH 5 0
BBX 5 3 0 0
BITMAP
F8
50
50
ENDCHAR
STARTCHAR char9574
ENCODING 9574
SWIDTH 225 0
DWIDTH 5 0
BBX 5 4 0 0
BITMAP
F8
00
D8
50
ENDCHAR
STARTCHAR char9575
ENCODING 9575
SWIDTH 225 0
DWIDTH 5 0
BBX 5 4 0 1
BITMAP
20
F8
00
F8
ENDCHAR
STARTCHAR char9576
ENCODING 9576
SWIDTH 225 0
DWIDTH 5 0
BBX 5 3 0 2
BITMAP
50
50
F8
ENDCHAR
STARTCHAR char9577
ENCODING 9577
SWIDTH 225 0
DWIDTH 5 0
BBX 5 4 0 1
BITMAP
50
D8
00
F8
ENDCHAR
STARTCHAR char9578
ENCODING 9578
SWIDTH 225 0
DWIDTH 5 0
BBX 5 5 0 0
BITMAP
20
F8
20
F8
20
ENDCHAR
STARTCHAR char9579
ENCODING 9579
SWIDTH 225 0
DWIDTH 5 0
BBX 5 5 0 0
BITMAP
50
50
F8
50
50
ENDCHAR
STARTCHAR char9580
ENCODING 9580
SWIDTH 225 0
DWIDTH 5 0
BBX 5 5 0 0
BITMAP
50
D8
00
D8
50
ENDCHAR
STARTCHAR char9600
ENCODING 9600
SWIDTH 225 0
DWIDTH 5 0
BBX 5 3 0 2
BITMAP
F8
F8
F8
ENDCHAR
STARTCHAR char9604
ENCODING 9604
SWIDTH 225 0
DWIDTH 5 0
BBX 5 3 0 0
BITMAP
F8
F8
F8
ENDCHAR
STARTCHAR char9608
ENCODING 9608
SWIDTH 225 0
DWIDTH 5 0
BBX 5 5 0 0
BITMAP
F8
F8
F8
F8
F8
ENDCHAR
STARTCHAR char9612
ENCODING 9612
SWIDTH 225 0
DWIDTH 5 0
BBX 5 5 0 0
BITMAP
C0
C0
C0
C0
C0
ENDCHAR
STARTCHAR char9616
ENCODING 9616
SWIDTH 225 0
DWIDTH 5 0
BBX 5 5 0 0
BITMAP
18
18
18
18
18
ENDCHAR
STARTCHAR char9617
ENCODING 9617
SWIDTH 225 0
DWIDTH 5 0
BBX 3 3 1 1
BITMAP
A0
00
A0
ENDCHAR
STARTCHAR char9618
ENCODING 9618
SWIDTH 225 0
DWIDTH 5 0
BBX 5 5 0 0
BITMAP
50
A8
50
A8
50
ENDCHAR
STARTCHAR char9619
ENCODING 9619
SWIDTH 225 0
DWIDTH 5 0
BBX 5 5 0 0
BITMAP
A8
50
A8
50
A8
ENDCHAR
ENDFONT
